# xmcd
#
# Track frame offsets: 
#        150
#        22422
#        42528
#        65206
#        79602
#        97116
#        112272
#        125768
#        142051
#
# Disc length: 2175 seconds
#
# Revision: 1
# Processed by: cddbd v1.5.2PL0 Copyright (c) Steve Scherf et al.
# Submitted via: ExactAudioCopy v0.99pb5
#
DISCID=94087d09
DTITLE=Barbara Morrison - By Request Vol.2
DYEAR=2011
DGENRE=Barbara Morrison
TTITLE0=Down Home Blues
TTITLE1=Give Me One Reason
TTITLE2=Don't Touch Me
TTITLE3=Red Top/Ella's Blues
TTITLE4=Never Make Your Move Too Soon
TTITLE5=Still Called The Blues
TTITLE6=I Love Being Here With You
TTITLE7=A River's Invitation
TTITLE8=At Last
EXTD=
EXTT0=
EXTT1=
EXTT2=
EXTT3=
EXTT4=
EXTT5=
EXTT6=
EXTT7=
EXTT8=
PLAYORDER=
